<?xml version="1.0" encoding="UTF-8" standalone="no"?>
<!-- Created with Inkscape (http://www.inkscape.org/) -->

<svg
   width="430"
   height="430"
   viewBox="0 0 113.77083 113.77083"
   version="1.1"
   id="svg1"
   xml:space="preserve"
   inkscape:export-filename="logo.png"
   inkscape:export-xdpi="96"
   inkscape:export-ydpi="96"
   inkscape:version="1.4.2 (f4327f4, 2025-05-13)"
   sodipodi:docname="logo.svg"
   xmlns:inkscape="http://www.inkscape.org/namespaces/inkscape"
   xmlns:sodipodi="http://sodipodi.sourceforge.net/DTD/sodipodi-0.dtd"
   xmlns="http://www.w3.org/2000/svg"
   xmlns:svg="http://www.w3.org/2000/svg"><sodipodi:namedview
     id="namedview1"
     pagecolor="#ffffff"
     bordercolor="#000000"
     borderopacity="0.25"
     inkscape:showpageshadow="2"
     inkscape:pageopacity="0.0"
     inkscape:pagecheckerboard="0"
     inkscape:deskcolor="#d1d1d1"
     inkscape:document-units="mm"
     inkscape:clip-to-page="true"
     inkscape:zoom="1.2757429"
     inkscape:cx="1218.8976"
     inkscape:cy="561.24161"
     inkscape:window-width="3840"
     inkscape:window-height="2036"
     inkscape:window-x="-12"
     inkscape:window-y="-12"
     inkscape:window-maximized="1"
     inkscape:current-layer="layer1" /><defs
     id="defs1" /><g
     inkscape:label="Layer 1"
     inkscape:groupmode="layer"
     id="layer1"><path
       style="fill:#207dbe;stroke:none"
       d="m 67.114014,16.451177 c -0.898815,-4.631968 -3.923049,-8.3962068 -8.995833,-8.4617718 -1.562655,-0.0202 -5.222113,0.5451377 -5.729374,2.4010638 -0.276897,1.013068 1.925447,3.43729 2.690541,4.049171 1.099763,0.879533 3.045954,0.621603 4.361749,0.712295 2.595271,0.178897 5.102337,0.967286 7.672917,1.299242 m 4.497914,89.693733 c -1.09275,-3.79341 -3.00335,-7.068814 -3.394671,-11.112481 -1.021789,-10.55885 6.600131,-18.08057 15.830076,-21.67949 5.13658,-2.002852 10.83531,-2.278292 15.875,-4.481402 1.527897,-0.66792 2.227177,-1.79798 3.488387,-2.75852 1.03017,-0.78456 2.36035,-1.0577 3.38976,-1.87556 1.50716,-1.19743 2.12088,-2.83366 3.1258,-4.39461 1.44697,-2.24764 3.93026,-4.70613 3.61822,-7.67292 -0.2495,-2.37227 -3.87399,-3.39332 -5.68467,-4.29866 -3.9869,-1.99345 -7.916227,-4.09555 -11.906247,-6.08541 -1.76187,-0.87868 -4.16654,-1.5262 -5.42048,-3.13725 -1.56231,-2.00722 -1.54842,-5.00063 -3.18623,-7.11597 C 83.715783,26.842823 75.636038,21.954281 70.024428,20.088794 66.519589,18.923669 62.83464,18.282703 59.176514,17.849639 57.603387,17.66341 55.193109,18.075917 53.760315,17.38988 52.402146,16.739564 51.526263,14.132359 50.42138,13.036302 47.336104,9.9756693 42.292888,8.8430029 38.274432,10.597481 c -3.263335,1.424784 -5.680177,4.453023 -6.233833,7.970363 -0.291988,1.855006 0.999705,4.552387 -0.66187,5.846962 -3.112261,2.424852 -6.231112,4.456188 -8.955614,7.382201 -6.999637,7.51736 -11.988011,17.43268 -16.7504132,26.45834 -1.521185,2.88293 -2.926218,5.81388 -4.374402,8.73124 -0.52405497,1.05571 -1.62498097,2.74099 -1.36966697,3.96875 0.33902903,1.630352 2.53771597,2.936002 3.68538497,3.991432 3.546545,3.26146 7.2575902,6.37881 11.1124982,9.27123 16.41476,12.31637 35.944138,21.926911 56.885412,21.926911 z"
       id="path1" /></g></svg>
